# This file uses centimeters as units for non-parametric coordinates.

mtllib Bullet_Rifle.mtl
g default
v -0.250000 0.662394 0.500000
v 0.250000 0.662394 0.500000
v -0.500000 0.662394 0.250000
v -0.250000 0.738361 0.250000
v 0.250000 0.738361 0.250000
v 0.500000 0.662394 0.250000
v -0.500000 0.662394 -0.250000
v -0.250000 0.738361 -0.250000
v 0.250000 0.738361 -0.250000
v 0.500000 0.662394 -0.250000
v -0.250000 0.662394 -0.500000
v 0.250000 0.662394 -0.500000
v -0.250000 2.265118 0.500000
v -0.500000 2.265118 0.250000
v 0.250000 2.265118 0.500000
v 0.500000 2.265118 0.250000
v -0.500000 2.265118 -0.250000
v 0.500000 2.265118 -0.250000
v -0.250000 2.265118 -0.500000
v 0.250000 2.265118 -0.500000
v -0.019152 3.819296 0.009576
v -0.009576 3.819455 0.019152
v 0.009576 3.819455 0.019152
v 0.019152 3.819296 0.009576
v -0.019152 3.819296 -0.009576
v 0.019152 3.819296 -0.009576
v -0.009576 3.819455 -0.019152
v 0.009576 3.819455 -0.019152
v 0.187000 2.829617 0.374000
v 0.374000 2.829617 0.187000
v 0.374000 2.829617 -0.187000
v 0.187000 2.829617 -0.374000
v -0.187000 2.829617 -0.374000
v -0.374000 2.829617 -0.187000
v -0.374000 2.829617 0.187000
v -0.187000 2.829617 0.374000
vt 0.250000 0.000000
vt 0.750000 0.000000
vt 0.000000 0.250000
vt 0.250000 0.250000
vt 0.750000 0.250000
vt 1.000000 0.250000
vt 0.000000 0.750000
vt 0.250000 0.750000
vt 0.750000 0.750000
vt 1.000000 0.750000
vt 0.250000 1.000000
vt 0.750000 1.000000
vt 0.000000 0.000000
vt 0.000000 1.000000
vt 1.000000 0.000000
vt 1.000000 1.000000
vt 1.000000 0.000000
vt 1.000000 1.000000
vt 0.000000 0.000000
vt 0.000000 1.000000
vt 1.000000 0.000000
vt 1.000000 1.000000
vt 0.000000 0.000000
vt 0.000000 1.000000
vt 0.000000 0.000000
vt 0.000000 1.000000
vt 1.000000 0.000000
vt 1.000000 1.000000
vt 1.000000 0.000000
vt 1.000000 1.000000
vt 0.000000 0.000000
vt 0.000000 1.000000
vt 0.000000 0.000000
vt 0.000000 1.000000
vt 1.000000 0.000000
vt 1.000000 1.000000
vt 1.000000 0.000000
vt 1.000000 1.000000
vt 0.000000 0.000000
vt 0.000000 1.000000
vt 1.000000 0.000000
vt 1.000000 1.000000
vt 0.000000 0.000000
vt 0.000000 1.000000
vt 0.000000 0.000000
vt 1.000000 0.000000
vt 0.500000 1.000000
vt 0.500000 1.000000
vt 0.000000 0.000000
vt 1.000000 0.000000
vt 0.500000 1.000000
vt 0.000000 0.000000
vt 1.000000 0.000000
vt 0.500000 1.000000
vt 0.000000 0.000000
vt 1.000000 0.000000
vt 0.500000 1.000000
vt 0.000000 0.000000
vt 1.000000 0.000000
vt 0.500000 1.000000
vt 0.000000 0.000000
vt 1.000000 0.000000
vt 0.500000 1.000000
vt 0.000000 0.000000
vt 1.000000 0.000000
vt 0.500000 1.000000
vt 0.000000 0.000000
vt 1.000000 0.000000
vt 1.000000 0.363214
vt 0.000000 0.363214
vt 1.000000 0.363214
vt 0.000000 0.363214
vt 1.000000 0.363214
vt 0.000000 0.363214
vt 1.000000 0.363214
vt 0.000000 0.363214
vt 1.000000 0.363214
vt 0.000000 0.363214
vt 1.000000 0.363214
vt 0.000000 0.363214
vt 1.000000 0.363214
vt 0.000000 0.363214
vt 1.000000 0.363214
vt 0.000000 0.363214
vn 0.033824 -0.956253 -0.290578
vn 0.290578 -0.956253 -0.033824
vn 0.088002 -0.992225 -0.088002
vn -0.088002 -0.992225 -0.088002
vn -0.033824 -0.956253 -0.290578
vn -0.290578 -0.956253 -0.033824
vn 0.088002 -0.992225 0.088002
vn 0.290578 -0.956253 0.033824
vn -0.088002 -0.992225 0.088002
vn -0.290578 -0.956253 0.033824
vn 0.033824 -0.956253 0.290578
vn -0.033824 -0.956253 0.290578
vn -0.946923 0.055348 0.316660
vn -0.948683 0.000000 0.316228
vn -0.316228 0.000000 0.948683
vn -0.316660 0.055348 0.946923
vn 0.316228 0.000000 0.948683
vn 0.316660 0.055348 0.946923
vn 0.948683 0.000000 0.316228
vn 0.946923 0.055348 0.316660
vn -0.946923 0.055348 -0.316660
vn -0.948683 0.000000 -0.316228
vn 0.948683 0.000000 -0.316228
vn 0.946923 0.055348 -0.316660
vn -0.316660 0.055348 -0.946923
vn -0.316228 0.000000 -0.948683
vn 0.316660 0.055348 -0.946923
vn 0.316228 0.000000 -0.948683
vn -0.302749 0.293830 0.906646
vn -0.906663 0.293831 0.302696
vn 0.302749 0.293830 0.906646
vn 0.906663 0.293831 0.302696
vn -0.906663 0.293831 -0.302696
vn 0.906663 0.293831 -0.302696
vn -0.302749 0.293830 -0.906646
vn 0.302749 0.293830 -0.906646
vn 0.882824 0.369604 0.289852
vn 0.287577 0.370584 0.883158
vn 0.882824 0.369604 -0.289852
vn 0.287577 0.370583 -0.883158
vn -0.287577 0.370584 -0.883158
vn -0.882824 0.369604 -0.289852
vn -0.882824 0.369604 0.289852
vn -0.287577 0.370583 0.883158
s 1
g pPlane1
usemtl phong1SG
f 1/1/1 3/3/2 4/4/3
f 4/4/3 5/5/4 2/2/5 1/1/1
f 2/2/5 5/5/4 6/6/6
f 8/8/7 4/4/3 3/3/2 7/7/8
f 5/5/4 4/4/3 8/8/7 9/9/9
f 10/10/10 6/6/6 5/5/4 9/9/9
f 7/7/8 11/11/11 8/8/7
f 11/11/11 12/12/12 9/9/9 8/8/7
f 9/9/9 12/12/12 10/10/10
s 2
f 14/16/13 3/15/14 1/13/15 13/14/16
f 13/18/16 1/17/15 2/19/17 15/20/18
f 15/22/18 2/21/17 6/23/19 16/24/20
f 17/30/21 7/29/22 3/25/14 14/26/13
f 16/28/20 6/27/19 10/31/23 18/32/24
f 19/38/25 11/37/26 7/33/22 17/34/21
f 20/42/27 12/41/28 11/39/26 19/40/25
f 18/36/24 10/35/23 12/43/28 20/44/27
f 13/45/16 36/84/29 35/81/30 14/46/13
f 15/49/18 29/70/31 36/83/29 13/50/16
f 16/52/20 30/72/32 29/69/31 15/53/18
f 14/55/13 35/82/30 34/79/33 17/56/21
f 18/58/24 31/74/34 30/71/32 16/59/20
f 17/61/21 34/80/33 33/77/35 19/62/25
f 19/64/25 33/78/35 32/75/36 20/65/27
f 20/67/27 32/76/36 31/73/34 18/68/24
f 30/72/32 24/54/37 23/51/38 29/69/31
f 31/74/34 26/60/39 24/54/37 30/71/32
f 32/76/36 28/66/40 26/60/39 31/73/34
f 33/78/35 27/63/41 28/66/40 32/75/36
f 34/80/33 25/57/42 27/63/41 33/77/35
f 35/82/30 21/47/43 25/57/42 34/79/33
f 36/84/29 22/48/44 21/47/43 35/81/30
f 29/70/31 23/51/38 22/48/44 36/83/29
f 23/51/38 28/66/40 27/63/41 22/48/44
f 26/60/39 28/66/40 23/51/38 24/54/37
f 21/47/43 22/48/44 27/63/41 25/57/42
